<svg version="1.1" id="Layer_1" xmlns="http://www.w3.org/2000/svg" xmlns:xlink="http://www.w3.org/1999/xlink" x="0px" y="0px"
	 width="100%" viewBox="0 0 500 500" enable-background="new 0 0 500 500" xml:space="preserve">
<path fill="#000000" opacity="1.000000" stroke="none" 
	d="
M295.000000,501.000000 
	C198.000031,501.000000 101.500015,500.976715 5.000187,501.095612 
	C1.576192,501.099823 0.903036,500.423828 0.905301,497.000000 
	C1.013778,333.000092 1.013756,169.000137 0.905338,5.000251 
	C0.903074,1.576960 1.575781,0.903021 4.999872,0.905286 
	C168.999756,1.013775 332.999725,1.013761 496.999634,0.905354 
	C500.422668,0.903091 501.096985,1.575422 501.094727,4.999753 
	C500.986206,168.999634 500.986237,332.999603 501.094604,496.999512 
	C501.096893,500.422272 500.425751,501.103210 497.000244,501.096588 
	C429.833679,500.966644 362.666809,501.000000 295.000000,501.000000 
z"/>
<path fill="#E50815" opacity="1.000000" stroke="none" 
	d="
M183.077026,418.528259 
	C183.173431,421.646881 181.393951,421.708038 179.418716,421.821442 
	C157.177444,423.098267 135.104172,425.872742 113.147682,429.564575 
	C110.036842,430.087646 109.467514,428.707153 109.004883,426.231873 
	C102.783081,392.942932 96.455376,359.673767 90.243179,326.383026 
	C82.444336,284.589478 74.813141,242.764481 66.951187,200.982864 
	C59.276505,160.196426 51.461227,119.436058 43.532581,78.698326 
	C42.656605,74.197548 43.577335,73.020821 48.239143,73.067345 
	C71.394447,73.298439 94.553673,73.236679 117.710548,73.106224 
	C121.311729,73.085938 122.737175,73.915962 123.392715,77.852760 
	C130.435089,120.145393 137.722687,162.397369 145.012863,204.648468 
	C148.258392,223.458420 151.662079,242.241058 155.065247,261.437195 
	C156.866730,262.760010 157.678802,264.064301 158.056808,266.137451 
	C161.623444,285.698639 164.659576,305.354370 168.127731,324.920654 
	C171.639618,344.733643 174.999771,364.587158 178.742813,384.366760 
	C180.846375,395.482727 183.330536,406.607910 183.077026,418.528259 
z"/>
<path fill="#E50815" opacity="1.000000" stroke="none" 
	d="
M277.640076,74.643982 
	C291.242157,124.070831 304.599762,173.071594 317.954956,222.072998 
	C321.093506,233.588593 324.241669,245.101669 327.335571,256.629272 
	C327.718018,258.054199 327.791626,259.562012 328.069977,261.434753 
	C330.995544,263.005432 332.200409,265.253784 333.005157,268.183563 
	C344.591919,310.366547 355.958099,352.609375 367.459747,394.815308 
	C369.470947,402.195496 371.267303,409.639282 373.535919,416.945251 
	C374.586304,420.328064 374.493866,423.773682 374.724731,427.599976 
	C375.077545,431.020081 373.523041,431.087006 371.105988,430.628113 
	C351.684479,426.940887 332.133820,424.167816 312.394714,422.906982 
	C302.171387,422.253937 302.074280,422.375977 299.567169,413.134979 
	C290.917938,381.254578 282.370331,349.346619 273.722015,317.466003 
	C265.637512,287.663757 257.459473,257.886963 249.355316,228.090057 
	C247.177109,220.081284 245.118195,212.040070 242.926086,203.639099 
	C240.033539,202.700104 239.489365,200.344894 238.854065,198.115814 
	C235.071350,184.843475 231.420135,171.534119 227.923325,158.184158 
	C222.151245,136.147873 215.798279,114.269501 210.031448,92.231148 
	C209.352509,89.636520 209.576874,86.980164 208.573303,84.112015 
	C206.399902,81.431717 207.900101,78.706383 207.509537,75.793304 
	C207.519638,75.129768 207.533401,74.864830 207.665009,74.219788 
	C207.782822,73.839684 207.759430,73.782135 207.789337,73.773735 
	C228.911499,73.153732 250.008377,73.646782 271.102783,73.538673 
	C273.194275,73.527954 275.427002,72.842697 277.640076,74.643982 
z"/>
<path fill="#B20413" opacity="1.000000" stroke="none" 
	d="
M337.568542,219.366211 
	C344.639709,176.389847 351.870911,133.789597 359.136963,91.195320 
	C359.946869,86.447525 361.110840,81.756523 361.812836,76.995285 
	C362.234192,74.137497 363.419525,73.109932 366.354004,73.121468 
	C390.168304,73.215179 413.983246,73.209282 437.797607,73.122017 
	C441.062469,73.110046 442.234863,73.920021 441.561462,77.441811 
	C432.956238,122.446480 424.431183,167.466553 415.948212,212.494492 
	C408.236298,253.429855 400.638092,294.386688 392.911682,335.319275 
	C390.081696,350.311707 387.027405,365.261749 383.954163,380.609253 
	C380.510712,384.325653 379.046722,384.253357 377.436646,380.248688 
	C375.141266,374.539612 373.393738,368.591003 371.966461,362.643982 
	C369.325806,351.641174 365.622131,340.951447 362.909058,329.986572 
	C359.279755,315.318970 355.886505,300.570770 351.391815,286.157257 
	C348.076996,275.527283 345.412781,264.728607 342.536957,254.006470 
	C340.174408,245.198059 336.938049,236.452896 336.978058,227.048889 
	C336.988770,224.535294 338.471619,222.264374 337.568542,219.366211 
z"/>
<path fill="#B10513" opacity="1.000000" stroke="none" 
	d="
M168.014893,219.446167 
	C172.348083,202.645767 176.609909,186.263382 181.033310,169.924759 
	C187.198013,147.154358 193.483551,124.416687 199.909027,101.336349 
	C203.278915,98.611633 204.486008,100.756294 205.495636,103.350983 
	C206.837692,106.799973 206.380981,110.608612 207.646347,114.075218 
	C213.111557,129.047623 215.949310,144.760864 220.591995,159.984451 
	C225.024063,174.517487 229.100937,189.217911 232.030533,204.176559 
	C232.222443,205.156464 232.475342,206.138229 232.908081,207.031693 
	C235.381149,212.137527 236.326294,217.523987 235.981598,223.575806 
	C235.664764,225.445953 235.348495,226.901642 234.895294,228.706375 
	C234.568115,229.385361 234.366165,229.707977 234.097504,230.303452 
	C232.335693,241.933533 228.519333,252.752823 225.575958,263.784973 
	C217.073746,295.652405 208.331940,327.455994 199.661667,359.278503 
	C198.837952,362.301758 197.855835,365.281860 196.872818,368.669006 
	C196.486435,369.610535 196.512451,370.266174 196.195511,371.144562 
	C196.126312,371.449249 196.113953,371.750122 196.025696,371.872131 
	C192.400116,374.650696 191.262589,372.296082 190.521713,369.341797 
	C188.335617,360.624329 187.035767,351.742462 185.499405,342.896820 
	C182.969559,328.331268 180.424591,313.759430 178.108749,299.167511 
	C175.975052,285.723328 172.256226,272.545685 171.351227,258.902802 
	C171.185867,256.409821 170.788589,253.925964 170.203476,251.513855 
	C167.673660,241.085052 164.947861,230.692001 168.014893,219.446167 
z"/>
<path fill="#A4060F" opacity="1.000000" stroke="none" 
	d="
M337.271088,219.386597 
	C337.778534,219.521301 338.447845,220.028793 338.497375,220.590927 
	C340.360199,241.722961 347.480011,261.574036 353.197174,281.781036 
	C356.896942,294.857635 359.973785,308.109802 363.378815,321.270630 
	C365.250824,328.506012 367.158997,335.733337 369.167419,342.931763 
	C372.200317,353.801971 375.248077,364.669861 378.494568,375.477142 
	C379.206421,377.846832 378.745575,381.695770 383.526550,381.047607 
	C383.341980,388.221893 381.548950,395.222748 379.900879,402.653259 
	C379.665771,403.226227 379.543762,403.415802 379.307526,403.923676 
	C379.193329,404.241974 379.472626,404.324799 379.478088,404.470337 
	C377.134064,405.519379 375.633728,404.648956 375.030731,402.311249 
	C367.063293,371.423248 358.299438,340.750000 350.107300,309.921295 
	C344.517395,288.885468 338.735962,267.895966 333.109314,246.430542 
	C333.064209,245.548660 333.083923,245.085724 333.165833,244.280792 
	C333.597260,243.228882 333.478058,242.462402 333.485779,241.426300 
	C334.704987,234.022919 335.924438,226.903885 337.271088,219.386597 
z"/>
<path fill="#A6060F" opacity="1.000000" stroke="none" 
	d="
M167.791794,219.302429 
	C168.307999,220.125229 169.004196,221.309097 168.830582,222.347549 
	C167.669342,229.292648 169.673904,235.841568 170.877289,242.545090 
	C176.544861,274.116333 182.177872,305.695953 187.449905,337.334778 
	C189.063385,347.017639 190.310181,356.764038 192.395416,366.365967 
	C192.835175,368.390869 192.691498,370.839355 195.596924,371.893188 
	C195.772141,372.835449 195.606842,373.676758 195.223480,374.761078 
	C194.880600,375.146759 194.755783,375.289398 194.733276,375.697296 
	C194.056580,379.924408 193.490433,383.943390 191.408463,387.842194 
	C188.681808,389.239655 188.118423,387.736298 187.400803,385.796661 
	C186.272690,382.747559 186.159714,379.548584 185.737350,376.427612 
	C184.569229,367.796021 183.045914,359.158905 181.102921,350.755951 
	C177.660263,335.867279 175.822495,320.743835 173.007629,305.776611 
	C170.102142,290.327454 167.091812,274.881683 164.927826,259.299133 
	C164.768082,258.148804 164.690277,257.049438 164.351761,255.892838 
	C162.773422,250.500137 161.838959,245.000580 162.656982,238.854523 
	C163.514725,231.897659 165.898102,225.838974 167.791794,219.302429 
z"/>
<path fill="#88050C" opacity="1.000000" stroke="none" 
	d="
M374.964172,427.689575 
	C371.935730,423.172852 371.002167,417.711884 369.570740,412.478088 
	C358.569397,372.252533 347.786041,331.967407 336.854889,291.722534 
	C334.199402,281.946045 331.246216,272.250366 328.280762,262.177795 
	C331.391541,261.371918 329.467590,258.114532 331.054932,256.331299 
	C334.802551,253.976288 335.538544,256.877930 336.225372,259.169922 
	C338.117554,265.484192 339.948669,271.819122 341.504150,278.231110 
	C345.033417,292.779205 349.437378,307.093750 353.175018,321.585510 
	C359.209778,344.983856 366.003052,368.174622 372.261261,391.512360 
	C374.112274,398.414978 375.714355,405.359619 377.655426,412.644318 
	C376.275391,417.648376 377.292816,422.811554 374.964172,427.689575 
z"/>
<path fill="#A5060F" opacity="1.000000" stroke="none" 
	d="
M236.235016,223.722610 
	C233.790634,216.185425 230.894836,208.612061 228.647156,200.803360 
	C225.717178,190.624344 224.968002,179.848282 220.261932,170.154984 
	C218.145462,165.795624 218.274338,160.820343 216.893356,156.172882 
	C213.922134,146.173553 210.985535,136.137924 208.718918,125.903145 
	C207.083176,118.517029 203.931824,111.456841 202.969116,103.831352 
	C202.821976,102.665878 201.858643,101.810242 200.420441,101.147598 
	C201.955658,93.858330 203.810638,86.708969 205.897552,79.253548 
	C206.521606,78.424149 206.486008,77.753830 206.833740,76.882423 
	C206.976883,76.225685 207.022522,75.868240 207.158783,75.254890 
	C207.373779,74.845123 207.498169,74.691269 207.812637,74.765335 
	C208.587677,77.432587 209.172653,79.871925 209.806122,82.684265 
	C208.584518,86.767906 209.045685,90.535561 209.888672,94.183090 
	C211.459244,100.978668 213.132294,107.734741 215.272141,114.412468 
	C217.544128,121.502487 219.144928,128.846375 220.980164,136.087646 
	C226.457382,157.699051 232.801025,179.075409 238.226410,200.698242 
	C239.025604,203.883469 239.211624,207.074432 239.501907,210.658813 
	C238.617615,215.159943 237.553314,219.307449 236.235016,223.722610 
z"/>
<path fill="#98050D" opacity="1.000000" stroke="none" 
	d="
M239.806061,210.666168 
	C237.998138,209.911545 237.569427,208.114441 237.087173,206.344437 
	C229.544968,178.662170 221.644547,151.070114 214.642731,123.251862 
	C212.023148,112.844208 208.152374,102.733398 206.801437,91.986816 
	C206.375839,88.601204 206.639191,85.731621 209.581207,83.228516 
	C214.254303,98.765800 218.716553,114.457138 223.039124,130.186844 
	C229.658737,154.275330 236.182068,178.390289 242.796967,202.879242 
	C240.935822,205.227844 240.957596,207.990814 239.806061,210.666168 
z"/>
<path fill="#93050D" opacity="1.000000" stroke="none" 
	d="
M378.031067,412.588867 
	C375.290466,412.130829 374.818115,409.815674 374.191864,407.540527 
	C367.544159,383.389008 360.768127,359.272308 354.234802,335.089996 
	C348.088379,312.339600 342.256226,289.504303 336.116028,266.752197 
	C335.144409,263.151978 334.692810,259.191864 331.482849,256.168701 
	C331.250397,255.157730 331.304382,254.324448 331.494995,253.094208 
	C331.655457,252.516525 331.679382,252.335800 331.808960,251.902847 
	C332.144775,249.963425 332.374939,248.276215 332.824768,246.300308 
	C336.800262,249.162476 337.247894,253.847366 338.416748,258.101685 
	C344.003876,278.437256 349.735870,298.741150 354.823883,319.203613 
	C360.874481,343.537231 368.830566,367.348572 374.355560,391.823090 
	C375.306915,396.037323 377.343903,400.006470 379.181458,404.352356 
	C379.586548,407.239227 377.244843,409.424774 378.031067,412.588867 
z"/>
<path fill="#85050C" opacity="1.000000" stroke="none" 
	d="
M183.318863,418.715240 
	C181.292252,414.481537 180.753464,409.658905 179.929474,404.925171 
	C171.930908,358.974243 164.008026,313.010162 156.054977,267.051300 
	C155.799515,265.575043 155.452301,264.114655 155.142181,262.242554 
	C157.160233,259.710999 157.055389,256.757629 158.217300,253.922928 
	C160.820572,252.977676 160.987610,254.571777 161.184784,256.379547 
	C162.943237,272.501434 166.489044,288.326782 169.103378,304.302887 
	C171.132034,316.699860 173.027573,329.135773 175.258606,341.492035 
	C178.100784,357.233093 180.457809,373.067780 184.028061,388.685059 
	C185.476822,395.022278 186.527039,401.543182 185.595856,408.558228 
	C185.895218,412.332855 184.255890,415.268860 183.318863,418.715240 
z"/>
<path fill="#9A050D" opacity="1.000000" stroke="none" 
	d="
M162.505127,238.688812 
	C165.547775,246.049194 166.440872,254.171143 167.549789,262.170654 
	C168.418961,268.440430 169.786911,274.587189 170.826248,280.806549 
	C174.295395,301.565857 177.641266,322.346466 181.244339,343.082428 
	C183.544586,356.320465 186.571045,369.429718 188.310791,382.770813 
	C188.545334,384.569397 188.907547,386.412262 190.810425,387.845764 
	C191.556168,391.102997 189.314041,393.455627 188.897064,396.638245 
	C184.768036,398.330322 185.228592,395.406525 184.974457,392.643066 
	C184.505341,391.229279 184.550751,390.137909 184.155350,388.733154 
	C183.836456,387.878265 183.718719,387.374298 183.646881,386.471161 
	C183.633514,383.985901 183.104691,382.021973 182.069855,379.781158 
	C181.623703,376.614471 181.418945,373.814667 180.852264,370.637543 
	C182.726288,363.316925 179.302704,357.660400 176.642502,351.381470 
	C176.070496,342.519470 173.729660,334.399902 172.534164,326.088654 
	C170.046814,308.796021 166.680008,291.645782 163.671707,274.446167 
	C162.296570,266.583923 161.912201,258.531250 159.430649,250.402908 
	C160.225067,246.328918 161.258881,242.670105 162.505127,238.688812 
z"/>
<path fill="#8E050C" opacity="1.000000" stroke="none" 
	d="
M185.762756,385.774597 
	C185.989777,386.452362 185.990463,386.894196 185.992676,387.667419 
	C186.018158,388.876068 185.949524,389.773041 186.759857,390.771667 
	C187.097977,392.931824 186.673569,394.978790 188.567215,396.757812 
	C188.746033,400.941345 186.871384,404.449188 185.892883,408.592773 
	C183.249191,405.926392 183.944275,401.988892 183.623184,398.565094 
	C182.950241,391.389221 181.263184,384.456848 179.905075,377.443237 
	C176.654648,360.656952 173.584991,343.810822 170.987259,326.941620 
	C168.379929,310.010101 164.606400,293.280029 162.616241,276.227051 
	C161.760941,268.898285 159.867737,261.591400 158.549316,253.910065 
	C158.558914,252.635529 158.767090,251.669296 159.083252,250.345398 
	C161.639862,252.696030 162.601669,256.079346 162.887741,259.530670 
	C163.934128,272.154755 167.342712,284.352203 169.375748,296.794556 
	C171.196869,307.940125 173.010422,319.087921 174.973434,330.208923 
	C176.154037,336.897491 177.614288,343.536682 178.972473,350.598450 
	C180.346390,357.098389 181.332840,363.267212 182.745361,369.704956 
	C183.309891,373.062622 183.628235,376.117218 183.970581,379.585266 
	C183.740921,382.059052 184.516495,383.832886 185.762756,385.774597 
z"/>
<path fill="#A40F1B" opacity="1.000000" stroke="none" 
	d="
M277.845459,74.658440 
	C275.618988,73.626526 273.066742,74.005898 270.601990,73.997696 
	C249.994614,73.929054 229.387131,73.897797 208.299438,73.810303 
	C208.904007,72.676186 210.299072,73.002937 211.587112,73.001755 
	C232.158142,72.982941 252.729218,72.975441 273.300171,73.015076 
	C274.862701,73.018082 276.695068,72.426453 277.845459,74.658440 
z"/>
<path fill="#93050D" opacity="1.000000" stroke="none" 
	d="
M333.376831,241.479767 
	C333.478180,241.930450 333.470795,242.718964 333.345703,243.723145 
	C333.241394,243.231735 333.254730,242.524658 333.376831,241.479767 
z"/>
<path fill="#A40F1B" opacity="1.000000" stroke="none" 
	d="
M206.732788,76.837868 
	C206.754181,77.184464 206.577133,77.785797 206.264771,78.667313 
	C206.264435,78.329201 206.399384,77.710907 206.732788,76.837868 
z"/>
<path fill="#A6060F" opacity="1.000000" stroke="none" 
	d="
M196.325226,371.193054 
	C196.264526,370.840149 196.402756,370.231018 196.669678,369.338989 
	C196.706955,369.682953 196.615540,370.309906 196.325226,371.193054 
z"/>
<path fill="#A5060F" opacity="1.000000" stroke="none" 
	d="
M234.276001,230.395447 
	C234.189957,230.238159 234.337387,229.892654 234.621582,229.301285 
	C234.675385,229.439362 234.592422,229.823303 234.276001,230.395447 
z"/>
<path fill="#88050C" opacity="1.000000" stroke="none" 
	d="
M331.809052,251.808258 
	C331.886078,251.894135 331.833862,252.132446 331.694763,252.531403 
	C331.569427,252.445084 331.593384,252.201294 331.809052,251.808258 
z"/>
<path fill="#A40F1B" opacity="1.000000" stroke="none" 
	d="
M207.974396,74.699783 
	C208.002716,74.993256 207.625885,74.996170 207.437637,74.997574 
	C207.173386,74.678093 207.223083,74.378052 207.590637,73.969269 
	C207.837234,74.028557 207.891647,74.217430 207.974396,74.699783 
z"/>
<path fill="#B10513" opacity="1.000000" stroke="none" 
	d="
M194.901337,375.727051 
	C194.809418,375.713013 194.835480,375.470001 194.959610,375.118835 
	C195.005417,375.004089 194.967072,375.491577 194.901337,375.727051 
z"/>
<path fill="#93050D" opacity="1.000000" stroke="none" 
	d="
M379.404968,404.114594 
	C379.288422,403.956696 379.408020,403.682068 379.669922,403.227417 
	C379.857880,403.376373 379.800781,403.693207 379.404968,404.114594 
z"/>
<path fill="#96050D" opacity="1.000000" stroke="none" 
	d="
M182.993317,369.564697 
	C178.522110,364.588074 179.724503,357.872070 178.895569,351.320984 
	C181.739944,356.728333 183.065231,362.770905 182.993317,369.564697 
z"/>
<path fill="#96050D" opacity="1.000000" stroke="none" 
	d="
M185.949799,385.650330 
	C183.713867,384.842621 182.769836,383.113403 183.849487,380.295410 
	C185.094589,381.595520 185.679123,383.378906 185.949799,385.650330 
z"/>
<path fill="#96050D" opacity="1.000000" stroke="none" 
	d="
M186.944183,390.693634 
	C185.951340,390.471313 185.285797,389.752777 185.882202,388.239990 
	C186.296539,388.791016 186.598877,389.583221 186.944183,390.693634 
z"/>
</svg>